<?xml version="1.0" encoding="utf-8"?>
<!-- Generator: Adobe Illustrator 19.1.0, SVG Export Plug-In . SVG Version: 6.00 Build 0)  -->
<svg version="1.1" id="Layer_1" xmlns="http://www.w3.org/2000/svg" xmlns:xlink="http://www.w3.org/1999/xlink" x="0px" y="0px"
	 viewBox="-330.1 248.3 122 122" style="enable-background:new -330.1 248.3 122 122;" xml:space="preserve">
<style type="text/css">
	.st0{fill:#00009B;}
	.st1{fill:#EE2845;}
</style>
<circle class="st0" cx="-269.1" cy="309.3" r="61"/>
<g id="z29dvG_13_">
	<g>
		<path class="st1" d="M-285.5,302.5c4.9-9.3,9.8-18.4,14.7-27.7c0.7-1.1,1.5-1.7,2.7-1.7c1.1,0.1,1.9,0.7,2.5,1.7
			c1.7,3.4,3.4,6.8,5.1,10.3c4,8.5,8.1,16.7,12.2,25c3.5,7,6.9,14.1,10.3,21.1c0.4,0.8,0.5,1.7,0.3,2.5c-0.4,1.3-2.5,2-3.8,1.6
			c-4-1.4-7.9-2.8-11.9-4.2c-3.5-1.2-7-2.4-10.6-3.6c-1.5-0.5-3.1-1.1-4.7-1.6c-0.4-0.1-0.9,0-1.3,0.1c-6.8,2.1-13.7,4.1-20.6,6.3
			c-2.1,0.6-4.3,1.3-6.3,2c-1.4,0.5-3.7-0.5-3.7-2.4c0-0.6,0.3-1.5,0.6-2.1C-295.2,320.8-290.4,311.6-285.5,302.5L-285.5,302.5z
			 M-265.4,288.3c-0.1,0-0.2,0.1-0.3,0.1c0,0.9,0,1.6-0.1,2.5c-0.1,4.1,0,8-0.1,12c-0.1,5.7-0.2,11.4-0.3,17c0,0.8,0.2,1.3,1.1,1.4
			c0.4,0.1,1,0.3,1.3,0.4c2.2,0.8,4.4,1.5,6.6,2.3c2.4,0.8,4.7,1.6,7.2,2.4c1.2,0.4,2.4,0.8,3.5,1.2c0.1-0.1,0.1-0.2,0.3-0.2
			C-252.6,314.4-259,301.4-265.4,288.3z M-271.4,288.3c-0.1-0.1-0.1-0.1-0.2-0.1c-6.8,12.8-13.6,25.8-20.5,38.7c0.2,0,0.2,0,0.3,0.1
			c6.3-2,12.7-3.9,19.1-5.9c0.6-0.1,0.9-0.5,0.9-1.1c0.1-4.1,0.1-8,0.2-12c0.1-3.1,0-6.3,0.1-9.4
			C-271.5,295.1-271.4,291.7-271.4,288.3z"/>
	</g>
</g>
</svg>
