<?xml version="1.0" encoding="utf-8"?>
<!-- Generator: Adobe Illustrator 19.1.0, SVG Export Plug-In . SVG Version: 6.00 Build 0)  -->
<svg version="1.1" id="Layer_1" xmlns="http://www.w3.org/2000/svg" xmlns:xlink="http://www.w3.org/1999/xlink" x="0px" y="0px"
	 viewBox="0 0 124.9 116.7" style="enable-background:new 0 0 124.9 116.7;" xml:space="preserve">
<style type="text/css">
	.st0{fill:#FFFFFF;}
</style>
<g id="cSEm9P_13_">
	<g>
		<path class="st0" d="M59,24.4c2.3,0,4.6,0,6.9,0c0.3,0.1,0.6,0.2,0.9,0.2c4,0.5,7.8,1.7,11.3,3.6c9.3,5,15.2,12.7,17.6,23.1
			c0.3,1.2,0.5,2.4,0.7,3.7c0,2.3,0,4.6,0,6.9c-0.6,2.6-1,5.2-1.9,7.7C90,81.7,81.3,89.1,68.6,91.8c-0.9,0.2-1.8,0.3-2.7,0.5
			c-2.2,0-4.5,0-6.7,0c-0.2-0.1-0.4-0.1-0.5-0.2c-5.2-0.6-10-2.3-14.4-5.1c-6.8-4.4-11.5-10.4-14-18.1c-0.8-2.3-1.2-4.8-1.7-7.2
			c0-2.3,0-4.6,0-6.9c0.1-0.3,0.2-0.6,0.2-0.8C30.5,40,40.6,28.7,54.4,25.3C55.9,24.9,57.4,24.7,59,24.4z M47.1,46.6
			c-0.2,2.6,1.5,4.4,2.4,6.6c0.7,1.7,1.7,3.3,2.5,5c0.9,1.9,1.4,4,2.9,5.7c0.2,0.2,0.2,0.6,0.3,0.9c0.6,1.5,1.2,3.1,1.9,4.6
			c0.7,1.4,1.5,2.7,2.3,4c0.6,0.9,1.3,1.8,2,2.6c0.2,0.2,0.8,0.3,0.9,0.1c0.7-0.6,1.5-1.3,2-2.1c0.7-1,1-2.2,1.6-3.4
			c0.6-1.2,1.2-2.4,1.8-3.6c0.9-1.7,1.8-3.5,2.6-5.3c0.2-0.4,0.4-0.9,0.6-1.3c0.7-1.5,1.3-3,2-4.6c0.2-0.5,0.6-1,0.8-1.5
			c0.7-1.5,1.3-2.9,1.9-4.4c0-0.1,0.1-0.1,0.1-0.2c1.1-0.8,1-2.1,1.2-3.2c0.2-1.1-0.8-2.1-1.6-1.7c-2,1-4,2.1-6.1,3.2
			c-1,0.5-1.9,1.2-3,1.5c-3.4,1.1-6.9,1.4-10.1-0.7c-0.2-0.1-0.4-0.1-0.5-0.2c-0.7-0.3-1.3-0.6-2-0.9c-1.6-0.8-3.1-1.8-4.8-2.6
			C48,44.9,47.1,45.6,47.1,46.6z"/>
	</g>
</g>
</svg>
