<?xml version="1.0" encoding="utf-8"?>
<!-- Generator: Adobe Illustrator 19.1.0, SVG Export Plug-In . SVG Version: 6.00 Build 0)  -->
<svg version="1.1" id="Layer_1" xmlns="http://www.w3.org/2000/svg" xmlns:xlink="http://www.w3.org/1999/xlink" x="0px" y="0px"
	 viewBox="0 0 124.9 116.7" style="enable-background:new 0 0 124.9 116.7;" xml:space="preserve">
<style type="text/css">
	.st0{fill:#FFFFFF;}
</style>
<g>
	<path class="st0" d="M70.1,33.5c0.1-0.1,0.2-0.1,0.3-0.2c-0.4-0.8-0.7-1.8-1.4-2.2c-0.4-0.2-1.6,0.4-2.1,0.9
		c-1.9,2.1-3.7,4.4-5.5,6.6c-0.7,0.9-1.5,2-2.9,1.6c-1.9-0.6-3.8-1.4-5.7-2.2c-2.5-1-4.9-2.1-7.4-3.1c-1.1-0.5-2-0.1-2.3,1.1
		c-0.5,2.1-1,4.3-1.4,6.4c-0.3,1.8-0.5,3.6-0.8,5.4c-0.2,1.3-0.4,2.6-0.6,4c-0.2,1.2-0.3,2.4-0.5,3.6c-0.3,2-0.8,3.9-1.1,5.9
		c-0.2,1.2-0.4,2.5-0.6,3.7c-0.1,0.7-0.3,1.4-0.4,2.1c-0.3,1.8-0.4,3.5-0.7,5.3c-0.2,1.2-0.8,2.4-0.8,3.6c0.1,2.4-0.4,4.6-1.1,6.9
		c-0.3,0.9-0.5,1.8,0.4,2.4c0.9,0.6,1.8,0.2,2.6-0.3c1.9-1.2,3.8-2.4,5.8-3.5c3.2-1.9,6.5-3.7,9.7-5.5c0.8-0.5,1.6-1,2.4-1.4
		c2.1-1.2,4.3-2.3,6.4-3.5c2.1-1.2,4.1-2.5,6.1-3.7c2.7-1.6,5.6-3,8.3-4.6c3.9-2.2,7.8-4.5,11.7-6.9c0.5-0.3,1.3-1.1,1.2-1.5
		c-0.1-0.6-0.7-1.4-1.3-1.7c-1.1-0.6-2.4-0.9-3.6-1.4c-1.9-0.8-3.8-1.6-5.6-2.5c-1.3-0.6-2.5-0.6-3.6,0.3c-3.8,3.2-7.5,6.5-11.2,9.7
		c-3,2.6-6,5.1-8.9,7.7c-2.5,2.2-5,4.5-7.5,6.7c-0.8,0.7-1.8,1.4-2.7,2c-0.2,0.1-0.7,0.1-0.9-0.1c-0.1-0.1-0.1-0.6,0-0.8
		c0.4-0.8,0.9-1.6,1.5-2.2c3.5-4.2,7.1-8.4,10.6-12.6c3.6-4.4,7.3-8.8,10.8-13.3c1.3-1.6,2.9-3.1,2.7-5.6
		C70,38.1,70.1,35.8,70.1,33.5z"/>
</g>
</svg>
