<?xml version="1.0" encoding="utf-8"?>
<!-- Generator: Adobe Illustrator 19.1.0, SVG Export Plug-In . SVG Version: 6.00 Build 0)  -->
<svg version="1.1" id="Layer_1" xmlns="http://www.w3.org/2000/svg" xmlns:xlink="http://www.w3.org/1999/xlink" x="0px" y="0px"
	 viewBox="0 0 124.9 116.7" style="enable-background:new 0 0 124.9 116.7;" xml:space="preserve">
<style type="text/css">
	.st0{fill:#FFFFFF;}
</style>
<g id="z29dvG_13_">
	<g>
		<path class="st0" d="M86,58c2,10.3,3.9,20.5,5.9,30.8c0.2,1.3-0.1,2.3-1.1,3c-0.9,0.6-1.9,0.6-3,0.2c-3.5-1.6-6.9-3.2-10.4-4.9
			C69,83,60.6,79.1,52.2,75.2c-7.1-3.3-14.2-6.7-21.2-10c-0.8-0.4-1.5-1-1.8-1.8c-0.5-1.3,0.7-3.1,2-3.6c4-1.4,7.9-2.8,11.9-4.2
			c3.5-1.3,7-2.5,10.5-3.8c1.5-0.6,3.1-1.1,4.6-1.7c0.4-0.2,0.7-0.6,0.9-0.9c4-5.9,8.1-11.8,12.1-17.8c1.3-1.8,2.6-3.7,3.7-5.5
			c0.8-1.3,3.2-1.9,4.4-0.4c0.4,0.5,0.7,1.3,0.8,2C82.1,37.6,84.1,47.8,86,58C86,58,86,58,86,58z M79.2,81.6
			c0.1-0.1,0.1-0.2,0.2-0.3c-0.5-0.7-1-1.3-1.5-2c-2.5-3.2-5-6.3-7.4-9.4c-3.5-4.5-7-9-10.4-13.5c-0.5-0.6-1-0.9-1.7-0.4
			c-0.4,0.2-0.9,0.4-1.3,0.5c-2.2,0.8-4.4,1.6-6.6,2.3c-2.4,0.9-4.7,1.7-7.1,2.6c-1.2,0.4-2.4,0.9-3.5,1.3c0,0.1,0,0.2-0.1,0.3
			C52.9,69.3,66.1,75.4,79.2,81.6z M83.9,77.9c0.1,0,0.1,0,0.2,0c-2.7-14.3-5.5-28.6-8.2-43c-0.2,0.1-0.2,0.1-0.3,0.1
			c-3.7,5.5-7.5,11-11.2,16.5c-0.4,0.5-0.4,0.9,0,1.4c2.5,3.2,4.9,6.3,7.4,9.5c1.9,2.5,3.9,4.9,5.8,7.4
			C79.7,72.5,81.8,75.2,83.9,77.9z"/>
	</g>
</g>
</svg>
