<?xml version="1.0" encoding="utf-8"?>
<!-- Generator: Adobe Illustrator 19.1.0, SVG Export Plug-In . SVG Version: 6.00 Build 0)  -->
<svg version="1.1" id="Layer_1" xmlns="http://www.w3.org/2000/svg" xmlns:xlink="http://www.w3.org/1999/xlink" x="0px" y="0px"
	 viewBox="0 0 124.9 116.7" style="enable-background:new 0 0 124.9 116.7;" xml:space="preserve">
<style type="text/css">
	.st0{fill:#FFFFFF;}
</style>
<g id="pgDICb_13_">
	<g>
		<path class="st0" d="M22.5,58.3c3.7-1.6,7.4-3.1,11.1-4.7c6.2-2.7,12.5-5.3,18.7-8c7.4-3.2,14.8-6.4,22.2-9.5
			c6.4-2.7,12.7-5.4,19.1-8.1c1.1-0.5,2.3-1,3.6-1.5c0,0.5,0.1,0.8,0.1,1.1c0,7.6,0,15.1,0,22.7c0,0.9-0.3,1.2-1.1,1.3
			c-3.8,0.5-7.6,1-11.5,1.5c-3.5,0.5-7,1-10.5,1.5C70,55,66,55.5,62,56c-2.5,0.3-4.9,0.7-7.4,1c-3.1,0.4-6.1,0.8-9.2,1.2
			c-0.1,0-0.2,0-0.3,0.2c1.6,0.2,3.2,0.5,4.8,0.7c2.9,0.4,5.7,0.7,8.6,1.1c3.3,0.4,6.6,0.8,9.9,1.3c3.4,0.4,6.8,0.9,10.1,1.4
			c4.9,0.7,9.9,1.3,14.8,2c1,0.1,2,0.3,3,0.4c0.6,0.1,0.9,0.4,0.9,1c0,7.7,0,15.5,0,23.2c0,0.2-0.1,0.4-0.1,0.8
			c-0.6-0.2-1.1-0.4-1.7-0.6c-7.9-3.4-15.8-6.8-23.6-10.1c-9-3.9-18-7.8-27.1-11.6c-7.3-3.1-14.6-6.2-21.8-9.4
			c-0.1,0-0.2-0.1-0.3-0.1C22.5,58.4,22.5,58.3,22.5,58.3z"/>
	</g>
</g>
</svg>
