<?xml version="1.0" encoding="utf-8"?>
<!-- Generator: Adobe Illustrator 19.1.0, SVG Export Plug-In . SVG Version: 6.00 Build 0)  -->
<svg version="1.1" id="Layer_1" xmlns="http://www.w3.org/2000/svg" xmlns:xlink="http://www.w3.org/1999/xlink" x="0px" y="0px"
	 viewBox="0 0 124.9 116.7" style="enable-background:new 0 0 124.9 116.7;" xml:space="preserve">
<style type="text/css">
	.st0{fill:#FFFFFF;}
</style>
<g id="lV8YW8_13_">
	<g>
		<path class="st0" d="M93.6,56.2c0,1.5,0,2.9,0,4.4c-0.2,0.2-0.4,0.5-0.7,0.7c-0.5,0.4-0.9,0.9-1.5,1.2c-2.2,1.1-4.5,2.2-6.8,3.2
			c-1.8,0.9-3.7,1.8-5.5,2.6c-2.2,1-4.4,2-6.5,3c-1,0.5-2,1-3,1.5c-1.4,0.7-2.8,1.3-4.2,2c-1.8,0.8-3.7,1.5-5.4,2.3
			c-1.6,0.8-3.2,1.7-4.8,2.5c-4.7,2.3-9.5,4.5-14.3,6.7c-1.1,0.5-2.1,1.1-3.1,1.7c-1,0-2.1,0-3.1,0c-0.4-0.5-0.9-1-1.3-1.5
			c0-0.7,0-1.3,0-2c0.2-0.1,0.3-0.3,0.4-0.4c2-3.2,4.1-6.4,6.1-9.7c2.6-4.3,4.5-8.8,5.2-13.8c0.3-2,0.1-3.9-0.3-5.8
			c-0.4-2.5-1.2-4.9-2.2-7.1c-1.9-4.3-4.5-8.2-7.2-12.1c-0.7-1.1-1.4-2.2-2.1-3.3c0-0.7,0-1.3,0-2c0.6-0.5,1.2-1.1,1.8-1.6
			c0.9,0,1.7,0,2.6,0c0.4,0.2,0.8,0.4,1.1,0.6c3.5,1.7,6.9,3.3,10.4,5c2.4,1.2,4.9,2.3,7.4,3.5c2.8,1.3,5.6,2.7,8.4,4.1
			c2.8,1.3,5.6,2.6,8.3,3.9c3.7,1.8,7.4,3.5,11.1,5.3C87.5,52.6,91,53.6,93.6,56.2z"/>
	</g>
</g>
</svg>
